<?xml version="1.0" encoding="UTF-8" standalone="no"?>
<svg
   xmlns:dc="http://purl.org/dc/elements/1.1/"
   xmlns:cc="http://creativecommons.org/ns#"
   xmlns:rdf="http://www.w3.org/1999/02/22-rdf-syntax-ns#"
   xmlns:svg="http://www.w3.org/2000/svg"
   xmlns="http://www.w3.org/2000/svg"
   xmlns:sodipodi="http://sodipodi.sourceforge.net/DTD/sodipodi-0.dtd"
   xmlns:inkscape="http://www.inkscape.org/namespaces/inkscape"
   inkscape:version="1.0 (4035a4fb49, 2020-05-01)"
   sodipodi:docname="create_new_vector.svg"
   width="680.31494"
   height="680.31494"
   viewBox="0 0 180 180"
   version="1.1"
   id="svg5196">
  <sodipodi:namedview
     inkscape:current-layer="svg5196"
     inkscape:window-maximized="1"
     inkscape:window-y="-8"
     inkscape:window-x="-8"
     inkscape:cy="397.63937"
     inkscape:cx="433.64879"
     inkscape:zoom="0.79081021"
     inkscape:pagecheckerboard="true"
     showgrid="false"
     id="namedview15595"
     inkscape:window-height="705"
     inkscape:window-width="1366"
     inkscape:pageshadow="2"
     inkscape:pageopacity="0"
     guidetolerance="10"
     gridtolerance="10"
     objecttolerance="10"
     borderopacity="1"
     bordercolor="#666666"
     pagecolor="#000000" />
  <defs
     id="defs5190" />
  <metadata
     id="metadata5193">
    <rdf:RDF>
      <cc:Work
         rdf:about="">
        <dc:format>image/svg+xml</dc:format>
        <dc:type
           rdf:resource="http://purl.org/dc/dcmitype/StillImage" />
        <dc:title></dc:title>
      </cc:Work>
    </rdf:RDF>
  </metadata>
  <g
     id="layer1">
    <path
       d="m 54.78233,37.319365 c -13.705398,0 -24.738727,10.776146 -24.738727,24.162128 v 55.792887 c 0,13.38597 11.033329,24.16214 24.738727,24.16214 h 60.27789 a 26.649077,24.726562 0 0 1 -3.86128,-12.81849 26.649077,24.726562 0 0 1 26.64832,-24.72597 26.649077,24.726562 0 0 1 13.87309,3.61518 V 61.481493 c 0,-13.385982 -11.03331,-24.162128 -24.73872,-24.162128 z"
       style="fill:none;fill-opacity:1;stroke:#ffffff;stroke-width:6.62441;stroke-linejoin:round;stroke-miterlimit:4;stroke-dasharray:none;stroke-opacity:1;paint-order:fill markers stroke"
       id="rect4863" />
    <rect
       transform="matrix(0.00515608,0.99998671,-0.99999225,0.003937,0,0)"
       style="fill:none;fill-opacity:1;stroke:#ffffff;stroke-width:3.40787;stroke-linejoin:round;stroke-miterlimit:4;stroke-dasharray:81.7888, 3.40786999999999995;stroke-dashoffset:0;stroke-opacity:1;paint-order:normal"
       id="rect5146-8"
       width="2.3520956"
       height="27.4349"
       x="127.4538"
       y="-150.52571"
       ry="1.3458631" />
    <rect
       ry="1.3144959"
       y="-141.34302"
       x="-139.07202"
       height="26.795492"
       width="2.4082224"
       id="rect5146-8-6"
       style="fill:none;fill-opacity:1;stroke:#ffffff;stroke-width:3.40787;stroke-linejoin:round;stroke-miterlimit:4;stroke-dasharray:81.7888, 3.40786999999999995;stroke-dashoffset:0;stroke-opacity:1;paint-order:normal"
       transform="matrix(-0.99999327,-0.00366898,0.0048751,-0.99998812,0,0)" />
    <rect
       style="fill:none;stroke:#ffffff;stroke-width:4.08561;stroke-linejoin:round;stroke-miterlimit:4;stroke-dasharray:none;stroke-opacity:1"
       id="rect5794"
       width="17.515629"
       height="17.918007"
       x="-32.775158"
       y="117.29597"
       ry="0.21925701"
       transform="matrix(0.75464162,-0.6561372,0.6577983,0.75319413,0,0)" />
    <path
       id="rect5146-8-6-2"
       style="fill:#ffffff;fill-opacity:1;stroke:#ffffff;stroke-width:1.08451;stroke-linejoin:round;stroke-miterlimit:4;stroke-dasharray:none;stroke-dashoffset:0;stroke-opacity:1;paint-order:normal"
       d="m 111.34689,72.208901 c -0.85836,-0.139589 -1.79669,0.06602 -2.49466,0.617738 L 95.103333,83.694606 a 6.7997614,6.7997614 0 0 1 3.009573,3.773583 L 112.58863,76.02582 c 1.11675,-0.882756 1.18273,-2.306501 0.14765,-3.192722 -0.38812,-0.332333 -0.87442,-0.540443 -1.38944,-0.624199 z M 85.146153,91.565807 71.792649,102.12132 c -1.116756,0.88274 -1.182816,2.307 -0.147785,3.19323 1.035032,0.88622 2.767413,0.88871 3.884169,0.006 l 12.593583,-9.955181 a 6.7997614,6.7997614 0 0 1 -2.976463,-3.799472 z" />
    <rect
       transform="matrix(0.75464162,-0.6561372,0.65779829,0.75319414,0,0)"
       ry="0.21925701"
       y="120.061"
       x="35.767536"
       height="17.918007"
       width="17.515629"
       id="rect5794-3"
       style="fill:none;stroke:#ffffff;stroke-width:4.08562;stroke-linejoin:round;stroke-miterlimit:4;stroke-dasharray:none;stroke-opacity:1" />
    <ellipse
       transform="rotate(7.471837)"
       style="fill:#000000;fill-opacity:0;stroke:#ffffff;stroke-width:3.08742;stroke-linejoin:round;stroke-miterlimit:4;stroke-dasharray:none;stroke-dashoffset:0;stroke-opacity:1"
       id="path5885"
       cx="102.46247"
       cy="76.918785"
       rx="6.3778152"
       ry="6.7993579" />
  </g>
</svg>
